{"title":"Rokkk 2010 Hindi 720p x264 AAC { TaRa }","magnet":"magnet:?xt=urn:btih:3f6409e488ea886fd4cfb18d3f87c374a3217f69&dn=Rokkk+2010+Hindi+720p+x264+AAC+%7B+TaRa+%7D&tr=udp%3A%2F%2Ftracker.leechers-paradise.org%3A6969&tr=udp%3A%2F%2Fzer0day.ch%3A1337&tr=udp%3A%2F%2Fopen.demonii.com%3A1337&tr=udp%3A%2F%2Ftracker.coppersurfer.tk%3A6969&tr=udp%3A%2F%2Fexodus.desync.com%3A6969","uploader":"SkTaRa","categoryP":"video","categoryS":"hd___movies","size":"958096350","seeders":"6","leechers":"12","description":"===================================================================\r\nGeneral\r\nComplete name               : Rokkk 2010 Hindi 720p x264 AAC { TaRa }.mkv\r\nFormat                      : Matroska\r\nFormat version              : Version 4 / Version 2\r\nFile size                   : 914 MiB\r\nDuration                    : 1h 55mn\r\nOverall bit rate mode       : Variable\r\n===================================================================\r\nVideo\r\nID                          : 1\r\nFormat                      : AVC\r\nFormat/Info                 : Advanced Video Codec\r\nFormat profile              : <a class=\"__cf_email__\" href=\"/cdn-cgi/l/email-protection\" data-cfemail=\"054d6c626d4549312b34\">[email&#xA0;protected]</a><script data-cfhash=\"f9e31\" type=\"text/javascript\">/* <![CDATA[ */!function(t,e,r,n,c,a,p){try{t=document.currentScript||function(){for(t=document.getElementsByTagName('script'),e=t.length;e--;)if(t[e].getAttribute('data-cfhash'))return t[e]}();if(t&&(c=t.previousSibling)){p=t.parentNode;if(a=c.getAttribute('data-cfemail')){for(e='',r='0x'+a.substr(0,2)|0,n=2;a.length-n;n+=2)e+='%'+('0'+('0x'+a.substr(n,2)^r).toString(16)).slice(-2);p.replaceChild(document.createTextNode(decodeURIComponent(e)),c)}p.removeChild(t)}}catch(u){}}()/* ]]> */</script>\r\nFormat settings, CABAC      : Yes\r\nFormat settings, ReFrames   : 3 frames\r\nCodec ID                    : V_MPEG4/ISO/AVC\r\nDuration                    : 1h 55mn\r\nBit rate mode               : Variable\r\nBit rate                    : 981 Kbps\r\nMaximum bit rate            : 1 000 Kbps\r\nWidth                       : 1 280 pixels\r\nHeight                      : 544 pixels\r\nDisplay aspect ratio        : 2.35:1\r\nFrame rate mode             : Constant\r\nFrame rate                  : 30.000 fps\r\nColor space                 : YUV\r\nChroma subsampling          : 4:2:0\r\nBit depth                   : 8 bits\r\nScan type                   : Progressive\r\nBits/(Pixel*Frame)          : 0.047\r\nStream size                 : 808 MiB (88%)\r\nTitle                       : .....::::: TaRa :::::.....\r\nLanguage                    : Hindi\r\nDefault                     : Yes\r\nForced                      : No\r\n===================================================================\r\nAudio\r\nID                          : 2\r\nFormat                      : AAC\r\nFormat/Info                 : Advanced Audio Codec\r\nFormat profile              : LC\r\nCodec ID                    : A_AAC\r\nDuration                    : 1h 55mn\r\nBit rate                    : 126 Kbps\r\nChannel(s)                  : 2 channels\r\nChannel positions           : Front: L R\r\nSampling rate               : 44.1 KHz\r\nFrame rate                  : 43.066 fps (1024 spf)\r\nCompression mode            : Lossy\r\nStream size                 : 103 MiB (11%)\r\nTitle                       : .....::::: TaRa :::::.....\r\nLanguage                    : Hindi\r\nDefault                     : Yes\r\nForced                      : No\r\n=================================================================== <a href=\"\nhttps://www.jiopic.com/image/YSYVE\" rel=\"nofollow\" target=\"_NEW\">\nhttps://www.jiopic.com/image/YSYVE</a> <a href=\"\nhttps://www.jiopic.com/image/YSk4S\" rel=\"nofollow\" target=\"_NEW\">\nhttps://www.jiopic.com/image/YSk4S</a> <a href=\"\nhttps://www.jiopic.com/image/YSj57\" rel=\"nofollow\" target=\"_NEW\">\nhttps://www.jiopic.com/image/YSj57</a> <a href=\"\nhttps://www.jiopic.com/image/YSSFe\" rel=\"nofollow\" target=\"_NEW\">\nhttps://www.jiopic.com/image/YSSFe</a> <a href=\"\nhttps://www.jiopic.com/image/YSXYI\" rel=\"nofollow\" target=\"_NEW\">\nhttps://www.jiopic.com/image/YSXYI</a> <a href=\"\nhttps://www.jiopic.com/image/YSsR2\" rel=\"nofollow\" target=\"_NEW\">\nhttps://www.jiopic.com/image/YSsR2</a> <a href=\"\nhttps://www.jiopic.com/image/YS364\" rel=\"nofollow\" target=\"_NEW\">\nhttps://www.jiopic.com/image/YS364</a> <a href=\"\nhttps://www.jiopic.com/image/YS1xi\" rel=\"nofollow\" target=\"_NEW\">\nhttps://www.jiopic.com/image/YS1xi</a> <a href=\"\nhttps://www.jiopic.com/image/YSLnt\" rel=\"nofollow\" target=\"_NEW\">\nhttps://www.jiopic.com/image/YSLnt</a> <a href=\"\nhttps://www.jiopic.com/image/YS8KF\" rel=\"nofollow\" target=\"_NEW\">\nhttps://www.jiopic.com/image/YS8KF</a> <a href=\"\nhttps://www.jiopic.com/image/YSzkz\" rel=\"nofollow\" target=\"_NEW\">\nhttps://www.jiopic.com/image/YSzkz</a> <a href=\"\nhttps://www.jiopic.com/image/YS5Vv\" rel=\"nofollow\" target=\"_NEW\">\nhttps://www.jiopic.com/image/YS5Vv</a> <a href=\"\nhttps://www.jiopic.com/image/YSga1\" rel=\"nofollow\" target=\"_NEW\">\nhttps://www.jiopic.com/image/YSga1</a> <a href=\"\nhttps://www.jiopic.com/image/YSB4D\" rel=\"nofollow\" target=\"_NEW\">\nhttps://www.jiopic.com/image/YSB4D</a> <a href=\"\nhttps://www.jiopic.com/image/YSARQ\" rel=\"nofollow\" target=\"_NEW\">\nhttps://www.jiopic.com/image/YSARQ</a> <a href=\"\nhttps://www.jiopic.com/image/YSq5f\" rel=\"nofollow\" target=\"_NEW\">\nhttps://www.jiopic.com/image/YSq5f</a> <a href=\"\nhttps://www.jiopic.com/image/YSVlj\" rel=\"nofollow\" target=\"_NEW\">\nhttps://www.jiopic.com/image/YSVlj</a> <a href=\"\nhttps://www.jiopic.com/image/YSNQN\" rel=\"nofollow\" target=\"_NEW\">\nhttps://www.jiopic.com/image/YSNQN</a> <a href=\"\nhttps://www.jiopic.com/image/YSMxn\" rel=\"nofollow\" target=\"_NEW\">\nhttps://www.jiopic.com/image/YSMxn</a> <a href=\"\nhttps://www.jiopic.com/image/YSOuY\" rel=\"nofollow\" target=\"_NEW\">\nhttps://www.jiopic.com/image/YSOuY</a>","last_updated":"2017-06-13T12:03:18.049Z","parsed":{"xt":"urn:btih:3f6409e488ea886fd4cfb18d3f87c374a3217f69","dn":"Rokkk 2010 Hindi 720p x264 AAC { TaRa }","tr":["udp://exodus.desync.com:6969","udp://open.demonii.com:1337","udp://tracker.coppersurfer.tk:6969","udp://tracker.leechers-paradise.org:6969","udp://zer0day.ch:1337"],"infoHash":"3f6409e488ea886fd4cfb18d3f87c374a3217f69","infoHashBuffer":{"type":"Buffer","data":[63,100,9,228,136,234,136,111,212,207,177,141,63,135,195,116,163,33,127,105]},"name":"Rokkk 2010 Hindi 720p x264 AAC { TaRa }","announce":["udp://exodus.desync.com:6969","udp://open.demonii.com:1337","udp://tracker.coppersurfer.tk:6969","udp://tracker.leechers-paradise.org:6969","udp://zer0day.ch:1337"],"urlList":[]}}